<svg xmlns="http://www.w3.org/2000/svg" version="1.1" x="0" y="0" viewBox="0 0 216 136.2" enable-background="new 0 0 215.999 136.167" xml:space="preserve"><path class="{% if page.categories %}{{ page.categories | first }}{% else %}{{ pages_list.first.categories.first }}{% endif %} jiggly" d="M149 44.9c0.9 3.6 1.6 8.2 2 14l0.2 3.1 1.3 9.8c0.6 3.7 2.2 6.9 4.8 9.7 2.6 2.7 5.7 4.1 9.2 4.1 4.1 0 7.4-1.2 9.7-3.6 2.3-2.4 3.4-5.5 3.4-9.5 0-1.2-0.4-3-1.3-5.5l-0.2-0.9c1.8-2.8 4.1-4.2 6.9-4.2 2.1 0 3.8 0.6 5.2 1.8 1.4 1.2 2.1 2.8 2.1 4.9 0 2.7-0.7 5-2.2 6.9 -1.5 1.9-3.6 4.1-6.4 6.4l-0.4 0.4c-4.3 3.7-8.9 7.1-13.9 10.3 -5 3.2-10.2 6-15.8 8.5 -5.5 2.5-11.1 4.5-16.8 6 -5.6 1.5-11.1 2.2-16.4 2.2 -4.6 0-9.3-0.6-14.1-1.8 -4.8-1.2-9.3-3-13.4-5.5 -4.1-2.5-7.5-5.7-10-9.4 -2.5-3.8-3.8-8.2-3.8-13.2 0-4.4 1.3-8.1 3.9-10.9 2.6-2.8 6.1-5.3 10.5-7.5 -1.9-3.8-4.9-6.8-9-8.8 -4.1-2-8.5-3.1-13.2-3.2 0 3.9-0.9 7.5-2.7 11.1 -1.8 3.6-4.1 6.8-7.1 9.7 -3 2.9-6.3 5.4-9.9 7.7 -3.6 2.2-7.3 4.1-11 5.6 1.2 6.4 5 9.5 11.3 9.5 3.7 0 6.9-1.3 9.5-3.8v1.8c0 0.7 0.1 1.9 0.2 3.3 0.1 1.6 0.2 2.8 0.2 3.6 0 3.3-1.4 5.9-4.1 8 -2.7 2.1-5.8 3.1-9.2 3.1 -5.5 0-10-1.9-13.7-5.8 -3.6-3.8-5.6-8.5-5.9-14 -1.3-0.1-3-0.7-5.1-1.6 1-4 2.7-7.2 5.1-9.5 0.3-4.1 1.5-8.1 3.6-11.9 2.1-3.8 4.8-7.1 8.1-10.1 3.3-3 7-5.4 11-7.4s8.1-3.3 12.2-3.9c-1-2.2-2.7-3.8-4.9-4.8 -2.2-1-5.3-1.8-9.3-2.6 -5.5-1-9.5-2.4-12.2-4.1 -2.7-1.7-4-4.9-4-9.7 0-4.3 1.5-7.6 4.4-9.9 3-2.3 6.6-3.4 10.9-3.4h2.2c-2.2 1.8-3.3 4.1-3.3 6.9 0 2.5 0.9 4.8 2.7 6.9 1.8 2.1 4.1 3.9 6.9 5.6l0.2 0.2c4 2.5 7 4.8 9 6.8 2 2 3.6 4.7 4.8 8.1l2.7-0.2c3.8 0 7.9 1 12.1 3 4.2 2 7.9 4.4 11 7.2l0.4-0.4c-2.5-5-3.8-9.6-3.8-13.8 0-5.8 2.3-10.5 6.8-14.3 4.5-3.8 9.7-5.7 15.4-5.7 5.2 0 10.3 1.3 15.4 3.9 5.1 2.6 9.2 6 12.3 10.1C146.3 37.7 148.1 41.4 149 44.9zM48.2 71.2c3-1.4 5.8-3.1 8.5-5.1 2.7-2 5-4.2 6.7-6.7 1.7-2.4 2.6-5 2.6-7.7 0-0.7-0.1-1.7-0.4-2.9 -3.1 0-6.2 0.7-9.2 2.1 -3 1.4-5.8 3.3-8.3 5.7 -2.5 2.4-4.5 5.1-5.9 8.2 -1.4 3.1-2.1 6.3-2.1 9.5C42.5 73.7 45.2 72.6 48.2 71.2z"/></svg>